# xmcd
#
# Track frame offsets:
#	150
#	20091
#	48156
#	68204
#	92739
#	110685
#	130628
#	153388
#	171861
#	192481
#	209932
#	229210
#	249864
#	270751
#	289265
#	306947
#
# Disc length: 4306 seconds
#
# Revision: 0
# Processed by: cddbd v1.5.2PL0 Copyright (c) Steve Scherf et al.
# Submitted via: audiograbber 1.83.01
#
DISCID=e710d010
DTITLE=Jennifer Lopez - On the 6
DYEAR=1999
DGENRE=Latin Pop
TTITLE0=If You Had My Love
TTITLE1=Should've Never
TTITLE2=Too Late
TTITLE3=Feelin' So Good
TTITLE4=Let's Get Loud
TTITLE5=Could This Be Love
TTITLE6=No Me Ames (Tropical Remix)
TTITLE7=Waiting for Tonight
TTITLE8=Open off My Love
TTITLE9=Promise Me You'll Try
TTITLE10=It's Not That Serious
TTITLE11=Talk about Us
TTITLE12=No Me Ames (Ballad Version)
TTITLE13=Una Noche Mas
TTITLE14=Baila
TTITLE15=Theme from Mahogany (Do You Know Where You're Going To)
EXTD=YEAR: 2002 ID3G: 13
EXTT0=
EXTT1=
EXTT2=
EXTT3=
EXTT4=
EXTT5=
EXTT6=
EXTT7=
EXTT8=
EXTT9=
EXTT10=
EXTT11=
EXTT12=
EXTT13=
EXTT14=
EXTT15=
PLAYORDER=
